# xmcd
#
# Track frame offsets:
#	150
#	13487
#	29392
#	42039
#	54120
#	65343
#	78397
#	88415
#
# Disc length: 1349 seconds
#
# Revision: 1
# Processed by: cddbd v1.5.2PL0 Copyright (c) Steve Scherf et al.
# Submitted via: audiograbber 1.83.01
#
DISCID=60054308
DTITLE=Various Artist - Bluegrass Classics Disc 2 (Southern Bluegrass)
DYEAR=2008
DGENRE=Bluegrass
TTITLE0=The Stanley Brothers - I Am A Man Of Constant Sorrow
TTITLE1=The Monroe Brothers - On The Banks Of The Ohio
TTITLE2=Bill Monroe and His Blue Grass Boys - Kentucky Waltz
TTITLE3=The Delmore Brothers - I'm Lonesome Without You
TTITLE4=The Coon Creek Girls - Little Birdie
TTITLE5=The Bailey Brothers - Alabama
TTITLE6=Charlie Monroe's Boys - The Great Speckled Bird
TTITLE7=Gid Tanner and Riley Puckett - On Tanner's Farm
EXTD=
EXTT0=
EXTT1=
EXTT2=
EXTT3=
EXTT4=
EXTT5=
EXTT6=
EXTT7=
PLAYORDER=
